<?xml version="1.0" standalone="no"?>
<!DOCTYPE svg PUBLIC "-//W3C//DTD SVG 20010904//EN"
 "http://www.w3.org/TR/2001/REC-SVG-20010904/DTD/svg10.dtd">
<svg version="1.0" xmlns="http://www.w3.org/2000/svg"
 width="512.000000pt" height="512.000000pt" viewBox="0 0 512.000000 512.000000"
 preserveAspectRatio="xMidYMid meet">
<metadata>
Created by potrace 1.14, written by Peter Selinger 2001-2017
</metadata>
<g transform="translate(0.000000,512.000000) scale(0.100000,-0.100000)"
fill="#000000" stroke="none">
<path d="M1003 5113 c-89 -11 -313 -370 -401 -643 -64 -195 -92 -376 -92 -585
0 -372 104 -719 306 -1022 102 -153 140 -193 187 -193 54 0 85 16 103 54 23
47 12 94 -36 155 -162 205 -281 478 -327 751 -19 116 -21 374 -4 485 43 280
137 507 307 745 41 58 77 115 80 127 10 36 -15 93 -50 114 -17 10 -33 18 -36
17 -3 0 -19 -3 -37 -5z"/>
<path d="M4049 5102 c-37 -19 -65 -76 -56 -114 4 -13 40 -70 81 -128 170 -238
264 -465 307 -745 17 -111 15 -369 -4 -485 -46 -273 -165 -546 -327 -751 -48
-61 -59 -108 -36 -155 17 -38 49 -54 102 -54 46 0 90 45 187 191 313 470 392
1063 215 1609 -89 275 -310 627 -404 644 -19 3 -44 -2 -65 -12z"/>
<path d="M1560 4764 c-30 -18 -112 -131 -165 -224 -207 -365 -225 -834 -45
-1217 83 -178 186 -318 243 -328 39 -8 83 8 108 38 24 28 24 94 1 128 -111
165 -139 212 -169 280 -159 367 -111 779 129 1111 48 68 58 88 58 122 -1 84
-89 134 -160 90z"/>
<path d="M3455 4768 c-36 -19 -55 -52 -55 -94 0 -34 10 -54 58 -122 240 -332
288 -744 129 -1111 -30 -68 -58 -115 -169 -280 -48 -70 2 -171 84 -171 64 0
155 108 248 295 86 172 123 303 139 491 28 314 -60 631 -244 890 -76 106 -130
135 -190 102z"/>
<path d="M2440 4178 c-111 -43 -190 -162 -190 -287 0 -73 19 -129 66 -193 l37
-49 -661 -1747 c-364 -961 -664 -1762 -668 -1779 -14 -69 33 -123 106 -123 70
0 83 22 205 348 l110 293 50 14 c57 17 1965 535 1969 535 1 0 99 -255 217
-567 152 -403 221 -574 240 -595 68 -72 196 -4 177 95 -3 12 -303 810 -668
1774 l-663 1752 37 49 c47 64 66 120 66 193 0 221 -220 367 -430 287z m341
-1175 c118 -313 214 -572 214 -577 0 -7 -1004 -376 -1012 -372 -4 3 572 1516
577 1516 3 0 103 -255 221 -567z m439 -1162 c77 -205 140 -374 138 -376 -2 -1
-274 92 -605 208 l-603 211 443 158 c243 87 451 162 462 167 11 5 21 8 22 7 1
-1 65 -169 143 -375z m-759 -295 c321 -113 598 -210 614 -216 31 -12 -54 -37
-1427 -409 l-107 -29 19 51 c11 29 84 222 163 429 78 208 145 378 148 378 3 0
269 -92 590 -204z"/>
</g>
</svg>
